<?xml version="1.0" encoding="UTF-8"?>
<svg width="100px" height="60px" viewBox="0 0 100 60" version="1.1" xmlns="http://www.w3.org/2000/svg" xmlns:xlink="http://www.w3.org/1999/xlink">
    <!-- Generator: Sketch 48.2 (47327) - http://www.bohemiancoding.com/sketch -->
    <title>card-mastercard</title>
    <desc>Created with Sketch.</desc>
    <defs></defs>
    <g id="Page-1" stroke="none" stroke-width="1" fill="none" fill-rule="evenodd">
        <g id="card-mastercard" fill-rule="nonzero">
            <rect id="Rectangle" fill="#000000" x="0" y="0" width="100" height="60" rx="4"></rect>
            <g id="mc_vrt_rev" transform="translate(21.000000, 7.000000)">
                <path d="M10.6315636,44.7482014 L10.6315636,41.7266187 C10.6671743,41.2125443 10.4799451,40.7079974 10.1176418,40.3416974 C9.75533851,39.9753974 9.25299729,39.7827669 8.73877477,39.8129496 C8.06111313,39.7685061 7.41298164,40.0965573 7.04734642,40.6690647 C6.71399202,40.113627 6.1036091,39.7851287 5.45659832,39.8129496 C4.89325068,39.7844596 4.35694918,40.0565469 4.04707469,40.5280575 L4.04707469,39.9338129 L3,39.9338129 L3,44.7482014 L4.05714272,44.7482014 L4.05714272,42.0992805 C4.01161429,41.7659447 4.11718725,41.4296762 4.34505164,41.18224 C4.57291603,40.9348039 4.89928738,40.8020273 5.23510175,40.8201439 C5.92979554,40.8201439 6.28217645,41.2733813 6.28217645,42.0892086 L6.28217645,44.7683453 L7.33931917,44.7683453 L7.33931917,42.0992805 C7.29565896,41.7663237 7.40187746,41.4311449 7.62931938,41.1841674 C7.85676129,40.93719 8.18199436,40.8038589 8.5172782,40.8201439 C9.23210804,40.8201439 9.57442092,41.2733813 9.57442092,42.0892086 L9.57442092,44.7683453 L10.6315636,44.7482014 Z M26.2722419,39.9338129 L24.5506095,39.9338129 L24.5506095,38.4733813 L23.4934667,38.4733813 L23.4934667,39.9338129 L22.5370043,39.9338129 L22.5370043,40.8906475 L23.5136028,40.8906475 L23.5136028,43.1064748 C23.5136028,44.2244604 23.9465279,44.8892086 25.1848951,44.8892086 C25.6475504,44.8907633 26.1012403,44.7615859 26.4937385,44.5165467 L26.1916977,43.6201438 C25.9109021,43.7876955 25.5922126,43.8812603 25.2654393,43.8920863 C24.762038,43.8920863 24.5707455,43.5697841 24.5707455,43.0863309 L24.5707455,40.8906475 L26.2823099,40.8906475 L26.2722419,39.9338129 Z M35.2025809,39.8129496 C34.6825257,39.797649 34.1957697,40.0681742 33.9340096,40.5179856 L33.9340096,39.9338129 L32.8970029,39.9338129 L32.8970029,44.7482014 L33.9440776,44.7482014 L33.9440776,42.0489208 C33.9440776,41.2532374 34.2863905,40.8100719 34.9508802,40.8100719 C35.1748355,40.8070073 35.3972034,40.8480758 35.6053019,40.9309352 L35.9274787,39.923741 C35.688349,39.8381617 35.4364133,39.7938855 35.1824448,39.7928057 L35.2025809,39.8129496 Z M21.7013581,40.3165467 C21.108666,39.9640172 20.4272242,39.7892205 19.7380931,39.8129496 C18.5198619,39.8129496 17.7244879,40.3971223 17.7244879,41.3539568 C17.7244879,42.1395683 18.3084334,42.6230215 19.3857122,42.7741007 L19.8891135,42.8446043 C20.4629909,42.9251798 20.7348276,43.0762589 20.7348276,43.3482014 C20.7348276,43.7208632 20.3522427,43.932374 19.6374128,43.932374 C19.0624291,43.949024 18.4985697,43.7716408 18.0365967,43.4287769 L17.5331954,44.2446043 C18.1431234,44.6706427 18.8736633,44.8895369 19.6172768,44.8690647 C21.0066643,44.8690647 21.8121064,44.2143884 21.8121064,43.2978417 C21.8121064,42.3812949 21.1778208,42.0086331 20.1307461,41.8575539 L19.6273448,41.7870503 C19.1742836,41.7266187 18.8118347,41.6359712 18.8118347,41.313669 C18.8118347,40.9913669 19.1541476,40.7496403 19.7280251,40.7496403 C20.2584467,40.7558043 20.7784201,40.8979857 21.2382289,41.1625899 L21.7013581,40.3165467 Z M49.7458443,39.8129496 C49.2257892,39.797649 48.7390332,40.0681742 48.477273,40.5179856 L48.477273,39.9338129 L47.4402664,39.9338129 L47.4402664,44.7482014 L48.4873411,44.7482014 L48.4873411,42.0489208 C48.4873411,41.2532374 48.829654,40.8100719 49.4941437,40.8100719 C49.7180989,40.8070073 49.9404668,40.8480758 50.1485654,40.9309352 L50.4707422,39.923741 C50.2316125,39.8381617 49.9796767,39.7938855 49.7257083,39.7928057 L49.7458443,39.8129496 Z M36.2546896,42.3309352 C36.2295083,43.0150391 36.4936566,43.678089 36.9822976,44.1573352 C37.4709387,44.6365814 38.138831,44.8876522 38.8220362,44.8489208 C39.4507233,44.8809193 40.0685756,44.6760863 40.5537367,44.2748201 L40.0503354,43.4287769 C39.6883752,43.7049048 39.2469989,43.8567973 38.7918321,43.8618704 C37.9892598,43.7969081 37.3710264,43.1263716 37.3710264,42.3208633 C37.3710264,41.5153549 37.9892598,40.8448185 38.7918321,40.7798561 C39.2469989,40.7849292 39.6883752,40.9368217 40.0503354,41.2129496 L40.5537367,40.3669064 C40.0685756,39.9656403 39.4507233,39.7608073 38.8220362,39.7928057 C38.138831,39.7540743 37.4709387,40.0051452 36.9822976,40.4843913 C36.4936566,40.9636375 36.2295083,41.6266874 36.2546896,42.3107913 L36.2546896,42.3309352 Z M46.0609468,42.3309352 L46.0609468,39.9338129 L45.0138721,39.9338129 L45.0138721,40.5179856 C44.6531365,40.0536439 44.0911256,39.7912701 43.5036682,39.8129496 C42.113564,39.8129496 40.9866618,40.9402902 40.9866618,42.3309352 C40.9866618,43.7215802 42.113564,44.8489208 43.5036682,44.8489208 C44.0911256,44.8706003 44.6531365,44.6082265 45.0138721,44.1438848 L45.0138721,44.7280575 L46.0609468,44.7280575 L46.0609468,42.3309352 Z M42.1646208,42.3309352 C42.2111829,41.5406244 42.8806799,40.9325006 43.6714975,40.9621948 C44.462315,40.9918889 45.0843595,41.6485084 45.0715699,42.4400873 C45.0587804,43.2316662 44.4158483,43.8678315 43.6244846,43.8719424 C43.2215315,43.877043 42.8347609,43.71355 42.5575568,43.4209382 C42.2803528,43.1283264 42.1379101,42.7331907 42.1646208,42.3309352 Z M29.5292483,39.8129496 C28.139144,39.8324187 27.0280184,40.975542 27.0474799,42.366187 C27.0669414,43.756832 28.2096202,44.8683898 29.5997245,44.8489208 C30.3239877,44.8861109 31.0362331,44.6527912 31.5982276,44.1942445 L31.0948263,43.418705 C30.6973215,43.7376223 30.2048641,43.9148342 29.6953707,43.9223021 C28.9756913,43.9842194 28.3374861,43.4618485 28.255643,42.7438848 L31.8297922,42.7438848 C31.8297922,42.6129496 31.8297922,42.4820143 31.8297922,42.3410071 C31.8297922,40.8302158 30.8934658,39.8230216 29.5443503,39.8230216 L29.5292483,39.8129496 Z M29.5292483,40.7496403 C29.8456878,40.7428912 30.1518399,40.8622092 30.3803181,41.0813314 C30.6087964,41.3004536 30.7408739,41.6014199 30.7474794,41.9179856 L28.2304729,41.9179856 C28.2683933,41.2455945 28.8363054,40.7266698 29.5091122,40.7496403 L29.5292483,40.7496403 Z M55.7614898,42.3410071 L55.7614898,38 L54.7546872,38 L54.7546872,40.5179856 C54.3939515,40.0536439 53.8319407,39.7912701 53.2444833,39.8129496 C51.854379,39.8129496 50.7274768,40.9402902 50.7274768,42.3309352 C50.7274768,43.7215802 51.854379,44.8489208 53.2444833,44.8489208 C53.8319407,44.8706003 54.3939515,44.6082265 54.7546872,44.1438848 L54.7546872,44.7280575 L55.7614898,44.7280575 L55.7614898,42.3410071 Z M57.5082923,44.0482014 C57.573741,44.0473992 57.6387179,44.0593733 57.6995848,44.0834532 C57.7573968,44.1070538 57.8103152,44.141208 57.8556392,44.1841726 C57.8998727,44.2275934 57.9357115,44.2788118 57.9613535,44.3352517 C58.0128822,44.4541245 58.0128822,44.5890409 57.9613535,44.7079136 C57.9357115,44.7643536 57.8998727,44.8155719 57.8556392,44.8589927 C57.8103152,44.9019573 57.7573968,44.9361116 57.6995848,44.9597122 C57.6393187,44.9863148 57.5741645,45.0000368 57.5082923,44.9999999 C57.313501,44.9985311 57.1370403,44.8847677 57.0552311,44.7079136 C57.004299,44.5889177 57.004299,44.4542476 57.0552311,44.3352517 C57.0808731,44.2788118 57.1167119,44.2275934 57.1609454,44.1841726 C57.2062693,44.141208 57.2591878,44.1070538 57.3169998,44.0834532 C57.3825678,44.057361 57.4528868,44.0453506 57.5233943,44.0482014 L57.5082923,44.0482014 Z M57.5082923,44.8992805 C57.5585365,44.8995858 57.6082805,44.88929 57.6542787,44.8690647 C57.6975895,44.8497203 57.7368689,44.8223849 57.770061,44.7884891 C57.9005914,44.6460179 57.9005914,44.4273632 57.770061,44.284892 C57.736948,44.2509028 57.6976496,44.2235542 57.6542787,44.2043165 C57.6082351,44.1842337 57.5585216,44.1739442 57.5082923,44.1741007 C57.4581064,44.174366 57.4084769,44.1846381 57.3623059,44.2043165 C57.3170776,44.222869 57.2760039,44.2502622 57.2414896,44.284892 C57.1109592,44.4273632 57.1109592,44.6460179 57.2414896,44.7884891 C57.2760886,44.8230155 57.3171405,44.8503941 57.3623059,44.8690647 C57.4130939,44.8909751 57.4681218,44.9012969 57.5233943,44.8992805 L57.5082923,44.8992805 Z M57.5384964,44.2999999 C57.5854896,44.2977201 57.6317972,44.3119742 57.6693807,44.3402877 C57.7006431,44.3661706 57.7175116,44.4055457 57.7146868,44.4460431 C57.7161482,44.4798623 57.7033656,44.5127445 57.6794487,44.5366906 C57.6502706,44.5632029 57.6130484,44.5791615 57.5737345,44.5820143 L57.7197208,44.7482014 L57.6039385,44.7482014 L57.4680202,44.5820143 L57.4227141,44.5820143 L57.4227141,44.7482014 L57.3270678,44.7482014 L57.3270678,44.3050359 L57.5384964,44.2999999 Z M57.4277481,44.3856114 L57.4277481,44.5064748 L57.5384964,44.5064748 C57.5582038,44.5123527 57.5791971,44.5123527 57.5989045,44.5064748 C57.6060845,44.4922206 57.6060845,44.4754052 57.5989045,44.461151 C57.6060845,44.4468968 57.6060845,44.4300815 57.5989045,44.4158273 C57.5791971,44.4099494 57.5582038,44.4099494 57.5384964,44.4158273 L57.4277481,44.3856114 Z M51.8903338,42.3410071 C51.9368959,41.5506964 52.6063929,40.9425726 53.3972105,40.9722667 C54.1880281,41.0019609 54.8100725,41.6585804 54.797283,42.4501592 C54.7844934,43.2417381 54.1415614,43.8779034 53.3501976,43.8820143 C52.9472445,43.8871149 52.5604739,43.7236219 52.2832699,43.4310101 C52.0060659,43.1383983 51.8636231,42.7432627 51.8903338,42.3410071 Z M16.5364608,42.3410071 L16.5364608,39.9338129 L15.4893861,39.9338129 L15.4893861,40.5179856 C15.1286505,40.0536439 14.5666396,39.7912701 13.9791823,39.8129496 C12.589078,39.8129496 11.4621758,40.9402902 11.4621758,42.3309352 C11.4621758,43.7215802 12.589078,44.8489208 13.9791823,44.8489208 C14.5666396,44.8706003 15.1286505,44.6082265 15.4893861,44.1438848 L15.4893861,44.7280575 L16.5364608,44.7280575 L16.5364608,42.3410071 Z M12.6401348,42.3410071 C12.6866969,41.5506964 13.3561939,40.9425726 14.1470115,40.9722667 C14.937829,41.0019609 15.5598735,41.6585804 15.547084,42.4501592 C15.5342944,43.2417381 14.8913623,43.8779034 14.0999986,43.8820143 C13.695309,43.8899623 13.3058457,43.7277157 13.0264091,43.4347675 C12.7469724,43.1418192 12.6031923,42.7450387 12.6300668,42.3410071 L12.6401348,42.3410071 Z" id="Shape" fill="#FFFFFF"></path>
                <g id="_Group_">
                    <rect id="Rectangle-path" fill="#FF5F00" x="21.507265" y="3.97876712" width="15.8846154" height="28.6927397"></rect>
                    <path d="M22.515812,18.3276712 C22.509873,12.7277427 25.0668529,7.43626216 29.4495726,3.97876712 C22.00639,-1.90065869 11.3176812,-1.04426947 4.89518355,5.94608744 C-1.5273141,12.9364443 -1.5273141,23.7138296 4.89518355,30.7041865 C11.3176812,37.6945434 22.00639,38.5509327 29.4495726,32.6715068 C25.0682471,29.2151094 22.5114234,23.9258212 22.515812,18.3276712 Z" id="_Path_" fill="#EB001B"></path>
                    <path d="M58.8235043,18.3276712 C58.8233422,25.3137681 54.8545798,31.6865214 48.6027655,34.7393983 C42.3509512,37.7922751 34.9136735,36.9893029 29.4495726,32.6715068 C33.8289865,29.212175 36.3860026,23.92359 36.3860026,18.325137 C36.3860026,12.726684 33.8289865,7.43809894 29.4495726,3.97876712 C34.9136735,-0.339028884 42.3509512,-1.14200116 48.6027655,1.9108757 C54.8545798,4.96375257 58.8233422,11.3365058 58.8235043,18.3226027 L58.8235043,18.3276712 Z" id="Shape" fill="#F79E1B"></path>
                    <path d="M57.0888034,29.630411 L57.0888034,29.0424658 L57.325812,29.0424658 L57.325812,28.9208219 L56.7257265,28.9208219 L56.7257265,29.0424658 L56.982906,29.0424658 L56.982906,29.630411 L57.0888034,29.630411 Z M58.2536752,29.630411 L58.2536752,28.9208219 L58.0721368,28.9208219 L57.8603419,29.4276712 L57.648547,28.9208219 L57.4871795,28.9208219 L57.4871795,29.630411 L57.6182906,29.630411 L57.6182906,29.0982192 L57.8149573,29.5594521 L57.9511111,29.5594521 L58.1477778,29.0982192 L58.1477778,29.6354795 L58.2536752,29.630411 Z" id="Shape" fill="#F79E1B"></path>
                </g>
            </g>
        </g>
    </g>
</svg>