<?xml version="1.0" encoding="UTF-8"?>
<svg width="30px" height="30px" viewBox="0 0 30 30" version="1.1" xmlns="http://www.w3.org/2000/svg" xmlns:xlink="http://www.w3.org/1999/xlink">
    <!-- Generator: Sketch 48.2 (47327) - http://www.bohemiancoding.com/sketch -->
    <title>transact</title>
    <desc>Created with Sketch.</desc>
    <defs></defs>
    <g id="HPP-Desktop" stroke="none" stroke-width="1" fill="none" fill-rule="evenodd" transform="translate(-72.000000, -630.000000)">
        <g id="transact" transform="translate(72.000000, 630.000000)" fill="#000000" fill-rule="nonzero">
            <path d="M18.4647887,25.1612903 L0.971830986,25.1612903 L0.971830986,3.87096774 L18.4647887,3.87096774 L18.9507042,3.87096774 L19.4366197,3.87096774 L19.4366197,1.4516129 C19.4366197,0.651290323 18.7825775,0 17.9788732,0 L1.45774648,0 C0.654042254,0 0,0.651290323 0,1.4516129 L0,28.5483871 C0,29.3487097 0.654042254,30 1.45774648,30 L17.9788732,30 C18.7825775,30 19.4366197,29.3487097 19.4366197,28.5483871 L19.4366197,25.1612903 L18.9507042,25.1612903 L18.4647887,25.1612903 Z M0.845070423,1.37323944 C0.845070423,1.08169014 1.06065728,0.845070423 1.32629108,0.845070423 L17.6877934,0.845070423 C17.9534272,0.845070423 18.1690141,1.08169014 18.1690141,1.37323944 L18.1690141,2.95774648 L0.845070423,2.95774648 L0.845070423,1.37323944 Z M18.1690141,28.6619718 C18.1690141,28.9340845 17.9534272,29.1549296 17.6877934,29.1549296 L1.32629108,29.1549296 C1.06065728,29.1549296 0.845070423,28.9340845 0.845070423,28.6619718 L0.845070423,26.1971831 L18.1690141,26.1971831 L18.1690141,28.6619718 Z M7.6056338,27.0422535 L7.6056338,27.8873239 L11.4084507,27.8873239 L11.4084507,27.0422535 L7.6056338,27.0422535 Z M16.9014085,9.50704225 C16.9014085,12.1863803 14.7215915,14.3661972 12.0422535,14.3661972 C9.36291549,14.3661972 7.18309859,12.1863803 7.18309859,9.50704225 C7.18309859,6.82770423 9.36291549,4.64788732 12.0422535,4.64788732 C14.7215915,4.64788732 16.9014085,6.82770423 16.9014085,9.50704225 Z M8.02816901,9.71830986 C8.02816901,11.815088 9.73420775,13.5211268 11.8309859,13.5211268 C13.9277641,13.5211268 15.6338028,11.815088 15.6338028,9.71830986 C15.6338028,7.62153169 13.9277641,5.91549296 11.8309859,5.91549296 C9.73420775,5.91549296 8.02816901,7.62153169 8.02816901,9.71830986 Z M16.056338,4.64788732 L28.3098592,4.64788732 L28.3098592,5.49295775 L16.056338,5.49295775 L16.056338,4.64788732 Z M29.1549296,4.64788732 L30,4.64788732 L30,5.49295775 L29.1549296,5.49295775 L29.1549296,4.64788732 Z M16.056338,13.5211268 L27.0422535,13.5211268 L27.0422535,14.3661972 L16.056338,14.3661972 L16.056338,13.5211268 Z M27.8873239,13.5211268 L28.7323944,13.5211268 L28.7323944,14.3661972 L27.8873239,14.3661972 L27.8873239,13.5211268 Z M17.7464789,7.6056338 L27.0422535,7.6056338 L27.0422535,8.45070423 L17.7464789,8.45070423 L17.7464789,7.6056338 Z M27.8873239,7.6056338 L28.7323944,7.6056338 L28.7323944,8.45070423 L27.8873239,8.45070423 L27.8873239,7.6056338 Z M19.0140845,10.5633803 L28.3098592,10.5633803 L28.3098592,11.4084507 L19.0140845,11.4084507 L19.0140845,10.5633803 Z M29.1549296,10.5633803 L30,10.5633803 L30,11.4084507 L29.1549296,11.4084507 L29.1549296,10.5633803 Z M12.5176056,13.0985915 L11.5669014,13.0985915 L11.5669014,12.1327968 C10.780669,12.1327968 10.1408451,11.4828169 10.1408451,10.6841046 L11.0915493,10.6841046 C11.0915493,10.950664 11.304507,11.167002 11.5669014,11.167002 L12.5176056,11.167002 C12.78,11.167002 12.9929577,10.950664 12.9929577,10.6841046 C12.9929577,10.4175453 12.78,10.2012072 12.5176056,10.2012072 L11.5669014,10.2012072 C10.780669,10.2012072 10.1408451,9.55122736 10.1408451,8.75251509 C10.1408451,7.95380282 10.780669,7.30382294 11.5669014,7.30382294 L11.5669014,6.33802817 L12.5176056,6.33802817 L12.5176056,7.30382294 C13.303838,7.30382294 13.943662,7.95380282 13.943662,8.75251509 L12.9929577,8.75251509 C12.9929577,8.48595573 12.78,8.26961771 12.5176056,8.26961771 L11.5669014,8.26961771 C11.304507,8.26961771 11.0915493,8.48595573 11.0915493,8.75251509 C11.0915493,9.01907445 11.304507,9.23541247 11.5669014,9.23541247 L12.5176056,9.23541247 C13.303838,9.23541247 13.943662,9.88539235 13.943662,10.6841046 C13.943662,11.4828169 13.303838,12.1327968 12.5176056,12.1327968 L12.5176056,13.0985915 Z M10.5633803,23.2394366 L20.7042254,23.2394366 L20.7042254,24.084507 L10.5633803,24.084507 L10.5633803,23.2394366 Z M8.87323944,23.2394366 L9.71830986,23.2394366 L9.71830986,24.084507 L8.87323944,24.084507 L8.87323944,23.2394366 Z M11.4084507,20.2816901 L20.7042254,20.2816901 L20.7042254,21.1267606 L11.4084507,21.1267606 L11.4084507,20.2816901 Z M10.5633803,17.3239437 L19.4366197,17.3239437 L19.4366197,18.1690141 L10.5633803,18.1690141 L10.5633803,17.3239437 Z M8.87323944,17.3239437 L9.71830986,17.3239437 L9.71830986,18.1690141 L8.87323944,18.1690141 L8.87323944,17.3239437 Z M9.71830986,20.2816901 L10.5633803,20.2816901 L10.5633803,21.1267606 L9.71830986,21.1267606 L9.71830986,20.2816901 Z"></path>
        </g>
    </g>
</svg>